<?xml version="1.0" encoding="UTF-8" standalone="no"?>
<svg
   aria-hidden="true"
   focusable="false"
   data-prefix="fas"
   data-icon="flag"
   class="svg-inline--fa fa-flag fa-w-16"
   role="img"
   viewBox="0 0 512 512"
   width="16"
   height="16"
   version="1.1"
   id="svg1"
   sodipodi:docname="icon.svg"
   inkscape:version="1.4.2 (ebf0e94, 2025-05-08)"
   xmlns:inkscape="http://www.inkscape.org/namespaces/inkscape"
   xmlns:sodipodi="http://sodipodi.sourceforge.net/DTD/sodipodi-0.dtd"
   xmlns="http://www.w3.org/2000/svg"
   xmlns:svg="http://www.w3.org/2000/svg">
  <defs
     id="defs1" />
  <sodipodi:namedview
     id="namedview1"
     pagecolor="#ffffff"
     bordercolor="#000000"
     borderopacity="0.25"
     inkscape:showpageshadow="2"
     inkscape:pageopacity="0.0"
     inkscape:pagecheckerboard="0"
     inkscape:deskcolor="#d1d1d1"
     inkscape:zoom="24.96875"
     inkscape:cx="13.05632"
     inkscape:cy="1.0212766"
     inkscape:window-width="1920"
     inkscape:window-height="1008"
     inkscape:window-x="0"
     inkscape:window-y="0"
     inkscape:window-maximized="1"
     inkscape:current-layer="svg1" />
  <path
     stroke="black"
     stroke-width="2"
     fill="#a5efac"
     d="M349.565 98.783C295.978 98.783 251.721 64 184.348 64c-24.955 0-47.309 4.384-68.045 12.013a55.947 55.947 0 0 0 3.586-23.562C118.117 24.015 94.806 1.206 66.338.048 34.345-1.254 8 24.296 8 56c0 19.026 9.497 35.825 24 45.945V488c0 13.255 10.745 24 24 24h16c13.255 0 24-10.745 24-24v-94.4c28.311-12.064 63.582-22.122 114.435-22.122 53.588 0 97.844 34.783 165.217 34.783 48.169 0 86.667-16.294 122.505-40.858C506.84 359.452 512 349.571 512 339.045v-243.1c0-23.393-24.269-38.87-45.485-29.016-34.338 15.948-76.454 31.854-116.95 31.854z"
     id="path1" />
  <path
     d="m 103.98402,186.56804 q -7.144488,0 -11.163276,4.91185 -4.01879,5.1351 -3.12571,12.05634 l 8.930618,56.26292 q 1.562848,9.37715 8.930608,16.07512 6.92123,6.25143 15.18208,6.25143 h 57.15598 q 10.04694,0 18.30776,-6.69796 8.70737,-6.92123 10.27023,-15.62859 l 20.54042,-60.72823 q 1.11633,-4.24205 -1.78612,-8.4841 -2.67917,-4.01878 -8.93061,-4.01878 z m 75.9103,133.95934 h -57.15598 q -23.219628,0 -41.080876,-16.07512 -17.86123,-16.29838 -20.54043,-38.40168 l -8.93062,-57.15598 q -3.57225,-25.00575 12.05635,-42.42046 15.85184,-17.41471 39.741256,-17.41471 H 218.296 q 24.78246,0 39.29474,17.86124 3.57223,4.24205 5.35835,9.82369 12.50287,-2.67919 25.00575,0 1.78615,-5.58164 5.35838,-9.82369 14.51226,-17.86124 39.29474,-17.86124 h 114.31197 q 24.11269,0 39.74127,17.41471 15.85188,17.41471 12.05635,41.5274 l -8.93061,58.9421 q -2.67922,22.32656 -20.98698,37.95515 -18.30776,15.62859 -40.63434,15.62859 h -57.15599 q -22.32654,0 -41.52737,-15.18206 -19.20084,-15.18206 -24.55922,-36.61555 l -16.9682,-51.79761 q -5.13509,-3.57225 -12.50288,-3.57225 -7.36776,0 -12.50287,3.57225 l -16.96817,53.58373 q -5.35837,20.54044 -24.55921,35.27596 -18.97758,14.73553 -41.52739,14.73553 z M 332.60796,186.56804 q -6.25143,0 -8.93061,4.01878 -2.6792,4.24205 -1.78612,9.37716 l 19.64737,58.04904 q 2.67918,9.82369 11.16326,16.96819 8.48411,7.14449 18.30777,7.14449 h 57.15599 q 8.26084,0 15.18205,-6.25143 7.14453,-6.4747 8.0376,-15.18206 l 9.82364,-58.04905 q 0.89308,-6.02817 -3.12571,-11.16327 -3.7955,-4.91185 -11.16327,-4.91185 z"
     id="text1"
     style="font-size:9600px;line-height:0px;font-family:'Symbols Nerd Font';-inkscape-font-specification:'Symbols Nerd Font';letter-spacing:501.76px;fill:#333333;stroke-width:91.4497;stroke-linecap:round;stroke-linejoin:round;paint-order:stroke markers fill"
     aria-label="󰊪" />
</svg>
